<svg xmlns="http://www.w3.org/2000/svg" width="267" height="267" fill-rule="evenodd" stroke-linejoin="round" stroke-miterlimit="2" clip-rule="evenodd"><path fill="url(#_Linear1)" fill-rule="nonzero" d="M216.533,59.395L216.533,121.404C216.533,128.366 215.921,135.283 214.65,142.07C209.679,168.358 191.7,208.741 139.667,228.033C135.579,229.545 131.083,229.545 127,228.033C74.963,208.741 56.983,168.358 52.013,142.07C50.746,135.283 50.133,128.366 50.133,121.404L50.133,59.395C98.3,81.291 133.333,37.499 133.333,37.499C133.333,37.499 168.363,81.291 216.533,59.395Z"/><path fill="url(#_Linear2)" fill-rule="nonzero" d="M110.535,220.683C92.067,210.889 79.036,198.158 69.949,184.999C70.367,126.59 107.783,76.913 159.906,58.26C174.433,65.526 194.052,69.614 216.533,59.395L216.533,65.768C157.32,93.715 115.243,152.099 110.535,220.683Z"/><path fill="url(#_Linear3)" fill-rule="nonzero" d="M216.533,106.06L216.533,121.404C216.533,122.112 216.527,122.821 216.514,123.53C185.564,145.194 164.059,179.457 159.467,218.848C155.197,221.282 150.617,223.557 145.706,225.637C145.463,225.294 145.224,224.952 144.988,224.61C145.354,173.339 174.229,128.796 216.533,106.06Z"/><path fill="url(#_Linear4)" d="M116.666,125L116.666,112.5C116.666,103.297 124.129,95.834 133.332,95.834C142.536,95.834 149.999,103.297 149.999,112.5L149.999,125C149.999,127.3 151.866,129.167 154.166,129.167C156.465,129.167 158.332,127.3 158.332,125L158.332,112.5C158.332,98.695 147.137,87.5 133.332,87.5C119.527,87.5 108.332,98.695 108.332,112.5L108.332,125C108.332,127.3 110.2,129.167 112.499,129.167C114.799,129.167 116.666,127.3 116.666,125Z"/><path fill="url(#_Linear5)" fill-rule="nonzero" d="M133.332,175C117.224,175 104.166,161.942 104.166,145.834L104.166,125L162.499,125L162.499,145.834C162.499,161.942 149.441,175 133.332,175Z"/><path fill="url(#_Linear6)" fill-rule="nonzero" d="M152.983,125L152.983,142.292C152.983,158.4 139.925,171.458 123.817,171.458C122.021,171.458 120.263,171.296 118.555,170.985C109.944,165.915 104.166,156.549 104.166,145.834L104.166,125L152.983,125Z"/><path fill="url(#_Linear7)" d="M139.582,139.584C139.582,136.134 136.782,133.334 133.332,133.334C129.883,133.334 127.082,136.134 127.082,139.584C127.082,143.033 129.883,145.834 133.332,145.834C136.782,145.834 139.582,143.033 139.582,139.584ZM131.249,139.584C131.249,138.434 132.183,137.5 133.332,137.5C134.482,137.5 135.416,138.434 135.416,139.584C135.416,140.733 134.482,141.667 133.332,141.667C132.183,141.667 131.249,140.733 131.249,139.584Z"/><path fill="url(#_Linear8)" d="M129.166,137.5L129.166,154.167C129.166,156.467 131.033,158.334 133.332,158.334C135.632,158.334 137.499,156.467 137.499,154.167L137.499,137.5C137.499,135.201 135.632,133.334 133.332,133.334C131.033,133.334 129.166,135.201 129.166,137.5Z"/><defs><linearGradient id="_Linear1" x1="0" x2="1" y1="0" y2="0" gradientTransform="rotate(45.448 -35.098 92.47) scale(199.698)" gradientUnits="userSpaceOnUse"><stop offset="0" stop-color="#8cb8fe"/><stop offset="1" stop-color="#3a7af7"/></linearGradient><linearGradient id="_Linear2" x1="0" x2="1" y1="0" y2="0" gradientTransform="rotate(46.926 -56.277 168.83) scale(327.19)" gradientUnits="userSpaceOnUse"><stop offset="0" stop-color="#8eb9fe"/><stop offset="1" stop-color="#005beb"/></linearGradient><linearGradient id="_Linear3" x1="0" x2="1" y1="0" y2="0" gradientTransform="rotate(46.926 -56.277 168.83) scale(327.19)" gradientUnits="userSpaceOnUse"><stop offset="0" stop-color="#8eb9fe"/><stop offset="1" stop-color="#005beb"/></linearGradient><linearGradient id="_Linear4" x1="0" x2="1" y1="0" y2="0" gradientTransform="rotate(41.247 -64.26 198.697) scale(53.3498)" gradientUnits="userSpaceOnUse"><stop offset="0" stop-color="#6583ad"/><stop offset="1" stop-color="#3d577b"/></linearGradient><linearGradient id="_Linear5" x1="0" x2="1" y1="0" y2="0" gradientTransform="matrix(58.3333 0 0 50 104.166 150)" gradientUnits="userSpaceOnUse"><stop offset="0" stop-color="#e1ecf8"/><stop offset="1" stop-color="#8baee0"/></linearGradient><linearGradient id="_Linear6" x1="0" x2="1" y1="0" y2="0" gradientTransform="matrix(48.8176 0 0 46.4581 104.166 148.229)" gradientUnits="userSpaceOnUse"><stop offset="0" stop-color="#e7f2f7"/><stop offset="1" stop-color="#bfd5ed"/></linearGradient><linearGradient id="_Linear7" x1="0" x2="1" y1="0" y2="0" gradientTransform="rotate(-118.678 117.01 37.687) scale(20.1036)" gradientUnits="userSpaceOnUse"><stop offset="0" stop-color="#6583ad"/><stop offset="1" stop-color="#3d577b"/></linearGradient><linearGradient id="_Linear8" x1="0" x2="1" y1="0" y2="0" gradientTransform="rotate(-118.678 117.01 37.687) scale(20.1036)" gradientUnits="userSpaceOnUse"><stop offset="0" stop-color="#6583ad"/><stop offset="1" stop-color="#3d577b"/></linearGradient></defs></svg>